<svg xmlns="http://www.w3.org/2000/svg" viewBox="0 0 448 240"><defs><style>.cls-1{fill:#25cb7e;}.cls-2{fill:#52ff8c;}.cls-3{fill:#209e6b;}.cls-4{fill:#258bf5;}.cls-5{fill:#41a8ff;}.cls-6{fill:#bcdfff;}.cls-7{fill:#1f47b0;}.cls-8{fill:#91ccff;}.cls-9{fill:#2267cf;}.cls-10{fill:#64b8ff;}</style></defs><title>Helidon_graphic_language 4</title><g id="Layer_1" data-name="Layer 1"><path class="cls-1" d="M338.18,45.47a.62.62,0,0,1,.48.18c1.64,1,4,3.78.06,6.92a2,2,0,0,1-.59.29l-12.36-.24L97.59,48.31S86.25,48,78.3,47.89l-8.06-.09,8.33,0,9.67-.08,10.33-.13,227.25-2Z"/><path class="cls-2" d="M323.73,3.55a.61.61,0,0,1,.48.18c1.64,1,4,3.78.06,6.91a2,2,0,0,1-.59.29l-12.36-.29L133.53,6.5S122.2,6.13,114.25,6l-8.06-.12,8.33,0,9.67-.1,10.33-.16L311.37,3.68Z"/><path class="cls-1" d="M343.43,77.39a.62.62,0,0,1,.48.18c1.64,1,4,3.78.07,6.92a2,2,0,0,1-.59.29L331,84.54,97.59,80.22s-11.34-.29-19.29-.41l-8.06-.09,8.33,0,20-.21,232.5-2Z"/><path class="cls-3" d="M368.2,92.53a.62.62,0,0,1,.48.18c1.64,1,4,3.78.06,6.92a2,2,0,0,1-.59.29l-12.36-.25-218.4-4.28s-11.34-.31-19.29-.43l-8.06-.1,8.33,0,9.67-.09,10.33-.14,217.45-2Z"/><path class="cls-1" d="M363.83,107.3a.62.62,0,0,1,.48.18c1.64,1,4,3.78.07,6.93a2,2,0,0,1-.59.29l-12.36-.2L77.62,110.06s-11.34-.26-19.29-.36c-13.49-.15-8.1,0,.26-.11l20-.19,272.87-2Z"/><path class="cls-2" d="M356,129.27a.62.62,0,0,1,.48.18c1.64,1,4,3.78.06,6.92a2,2,0,0,1-.59.29l-12.36-.23-232.9-4.32s-11.34-.29-19.29-.41l-8.06-.09,8.33,0,9.67-.08,10.33-.13,232-2Z"/><path class="cls-1" d="M338.39,141.95a.62.62,0,0,1,.48.18c1.64,1,4,3.78.06,6.92a2,2,0,0,1-.59.29L326,149.08l-216.42-4.27s-11.34-.31-19.29-.44l-8.06-.1,8.33,0,9.67-.09,10.33-.14,215.47-2Z"/><path class="cls-2" d="M340.73,159.34a.62.62,0,0,1,.48.18c1.64,1,4,3.78.07,6.92a2,2,0,0,1-.59.29l-12.36-.23-235-4.26S82,162,74.07,161.84L66,161.75l8.33,0,20-.22,234-2.05Z"/><path class="cls-3" d="M338.38,193a.62.62,0,0,1,.48.18c1.64,1,4,3.78.07,6.92a2,2,0,0,1-.59.29L326,200.17l-214.46-4.09s-11.34-.31-19.29-.43l-8.06-.09,8.33,0,9.67-.1,10.33-.15L326,193.16Z"/><path class="cls-3" d="M298.79,213.11a.62.62,0,0,1,.48.18c1.64,1,4,3.78.06,6.92a2,2,0,0,1-.59.29l-12.36-.25L69.79,216s-11.34-.31-19.29-.44l-8.06-.1,8.33,0,9.67-.09,10.33-.14,215.66-2Z"/><path class="cls-2" d="M320.62,229.81a.62.62,0,0,1,.48.18c1.64,1,4,3.78.07,6.93a2,2,0,0,1-.59.29l-12.36-.2L34.4,232.57s-11.34-.26-19.29-.36c-13.49-.15-8.1,0,.26-.11l20-.19,272.87-2Z"/><path class="cls-3" d="M298.79,19.36a.62.62,0,0,1,.48.18c1.64,1,4,3.79.05,6.9a2,2,0,0,1-.59.29l-12.36-.3-172.82-4.1s-11.34-.38-19.29-.53l-8.06-.12,8.33,0,9.67-.11,10.33-.17L286.43,19.5Z"/><path class="cls-2" d="M323.76,175.2a.62.62,0,0,1,.48.18c1.64,1,4,3.78.06,6.91a2,2,0,0,1-.59.29l-12.36-.27L112,178.09s-11.34-.33-19.29-.47l-8.06-.11,8.33,0,9.67-.09,10.33-.15,198.41-1.93Z"/><path class="cls-2" d="M317.08,62.07a.61.61,0,0,1,.48.18c1.64,1,4,3.78.07,6.92a2,2,0,0,1-.59.29l-12.36-.24L72.89,64.9s-11.34-.3-19.29-.41l-8.06-.09,8.33,0,9.67-.08,10.33-.13,230.85-2Z"/><polygon class="cls-4" points="261.27 138.87 369.64 74.27 401.71 74.27 401.25 123.48 261.27 138.87"/><polygon class="cls-5" points="286.94 37.5 286.94 209.49 399.06 123.55 286.94 37.5"/><polygon class="cls-4" points="286.98 123.64 194.79 209.48 286.94 209.49 286.98 123.64"/><polygon class="cls-6" points="399.04 123.55 286.94 209.49 287.33 123.55 399.04 123.55"/><polygon class="cls-7" points="287.33 162.4 148.97 37.5 286.94 37.5 287.33 162.4"/><polygon class="cls-8" points="401.25 123.48 345.54 164.56 287.33 123.55 401.25 123.48"/><polygon class="cls-9" points="401.25 86.63 413.61 74.27 401.25 74.27 401.25 86.63"/><polygon class="cls-6" points="401.25 86.63 364.4 123.48 401.25 123.48 401.25 86.63"/><path class="cls-2" d="M284.39,119.79a.61.61,0,0,1,.48.18c1.64,1,4,3.79,0,6.9a2,2,0,0,1-.59.28L272,126.82l-156.83-4.09s-11.34-.41-19.28-.58L87.8,122l8.33,0,9.67-.11,10.33-.18L272,119.93Z"/><polygon class="cls-10" points="232.19 209.47 253.91 209.48 253.91 193.97 232.19 209.47"/><polygon class="cls-10" points="253.91 209.47 265.94 209.48 265.94 200.9 253.91 209.47"/><polygon class="cls-10" points="220.16 209.47 232.19 209.48 232.19 200.9 220.16 209.47"/></g></svg>