<?xml version="1.0" encoding="UTF-8" standalone="no"?>
<svg
   xmlns:dc="http://purl.org/dc/elements/1.1/"
   xmlns:cc="http://creativecommons.org/ns#"
   xmlns:rdf="http://www.w3.org/1999/02/22-rdf-syntax-ns#"
   xmlns:svg="http://www.w3.org/2000/svg"
   xmlns="http://www.w3.org/2000/svg"
   width="222"
   height="350"
   viewBox="0 0 222 350"
   version="1.1">
  <defs
     id="defs6071">
    <marker
       orient="auto"
       refY="0"
       refX="0"
       id="marker4963"
       style="overflow:visible">
      <path
         id="path4961"
         style="fill:#ffffff;fill-opacity:1;fill-rule:evenodd;stroke:#ffffff;stroke-width:0.625;stroke-linejoin:round;stroke-opacity:1"
         d="M 8.7185878,4.0337352 -2.2072895,0.01601326 8.7185884,-4.0017078 c -1.7454984,2.3720609 -1.7354408,5.6174519 -6e-7,8.035443 z"
         transform="scale(-0.6)" />
    </marker>
  </defs>
  <circle style="fill:none;stroke:#ffffff;stroke-width:1.5" r="23.5" cy="30" cx="25" />
  <path style="fill:#ffffff;stroke-width:3.37570333"
     d="m 23.521776,28.800423 h 1.454868 q 1.371133,-0.02092 2.156133,-0.722199 0.784999,-0.701265 0.784999,-1.894465 0,-2.679464 -2.669,-2.679464 -1.255998,0 -2.009596,0.722198 -0.743135,0.711733 -0.743135,1.894465 h -1.936333 q 0,-1.810731 1.318799,-3.003931 1.329267,-1.203664 3.370265,-1.203664 2.156133,0 3.38073,1.140866 1.224601,1.140867 1.224601,3.171396 0,0.994333 -0.648932,1.925866 -0.638467,0.931532 -1.747932,1.392066 1.255998,0.397732 1.93633,1.318799 0.6908,0.921067 0.6908,2.250332 0,2.051466 -1.339732,3.25513 -1.339732,1.203668 -3.485397,1.203668 -2.145664,0 -3.495864,-1.161799 -1.339733,-1.161799 -1.339733,-3.066732 h 1.946798 q 0,1.203664 0.785,1.925866 0.785,0.722197 2.103799,0.722197 1.402531,0 2.145665,-0.732665 0.743131,-0.732667 0.743131,-2.1038 0,-1.329264 -0.816397,-2.040997 -0.816401,-0.711734 -2.354999,-0.732667 h -1.454868 z" />
  <path
     id="path4620"
     d="M 24.408714,53.805128 C 27.493424,203.53242 39.569237,194.55603 121.492,261.29231"
     style="display:inline;opacity:0.98999999;fill:none;stroke:#ffffff;stroke-width:1.55551994;stroke-linecap:butt;stroke-linejoin:miter;stroke-miterlimit:4;stroke-dasharray:none;stroke-opacity:1;marker-end:url(#marker4963)" />
  <g
     id="g6025"
     style="display:inline"
     transform="matrix(0.98951647,0,0,0.98951647,-377.15033,-6065.1864)">
    <g
       id="g5984"
       style="opacity:0.98999999;stroke-width:0.5;stroke-miterlimit:4;stroke-dasharray:none"
       transform="matrix(0.18209098,0,0,0.16329384,420.76226,5393.6807)">
      <g
         id="g9857"
         transform="matrix(3.7795275,0,0,3.7795275,405.89038,5948.7946)"
         style="stroke-width:0.13229167;stroke-miterlimit:4;stroke-dasharray:none">
        <path
           style="opacity:1;vector-effect:none;fill:#ffffff;fill-opacity:1;stroke:none;stroke-width:0.13229167;stroke-linecap:butt;stroke-linejoin:miter;stroke-miterlimit:4;stroke-dasharray:none;stroke-dashoffset:0;stroke-opacity:1"
           d="M 1e-5,0.001101 79.04373,1e-6 v 90.247805 z"
           id="path4685" />
        <path
           style="opacity:1;vector-effect:none;fill:#b3b3b3;fill-opacity:1;stroke:none;stroke-width:0.13229167;stroke-linecap:butt;stroke-linejoin:miter;stroke-miterlimit:4;stroke-dasharray:none;stroke-dashoffset:0;stroke-opacity:1"
           d="m 79.04373,0 45.81585,52.483306 -2.17562,2.52653 H 78.96104 Z"
           id="path4687" />
        <path
           style="opacity:1;vector-effect:none;fill:#cccccc;fill-opacity:1;stroke:none;stroke-width:0.13229167;stroke-linecap:butt;stroke-linejoin:miter;stroke-miterlimit:4;stroke-dasharray:none;stroke-dashoffset:0;stroke-opacity:1"
           d="m 106.78791,31.709659 8.66738,-7.369032 h 27.37069 v 7.719938 l -17.9664,20.422741 z"
           id="path4689" />
        <path
           style="opacity:1;vector-effect:none;fill:#ffffff;fill-opacity:1;stroke:none;stroke-width:0.13229167;stroke-linecap:butt;stroke-linejoin:miter;stroke-miterlimit:4;stroke-dasharray:none;stroke-dashoffset:0;stroke-opacity:1"
           d="m 142.82598,24.340627 6.70231,0.03509 -6.70231,7.684849 z"
           id="path4691" />
        <path
           style="opacity:1;vector-effect:none;fill:#ffffff;fill-opacity:1;stroke:none;stroke-width:0.13229167;stroke-linecap:butt;stroke-linejoin:miter;stroke-miterlimit:4;stroke-dasharray:none;stroke-dashoffset:0;stroke-opacity:1"
           d="m 142.82598,32.060565 -20.14202,22.949271 h 20.12305 z"
           id="path4693" />
        <path
           style="opacity:1;vector-effect:none;fill:#cccccc;fill-opacity:1;stroke:none;stroke-width:0.13229167;stroke-linecap:butt;stroke-linejoin:miter;stroke-miterlimit:4;stroke-dasharray:none;stroke-dashoffset:0;stroke-opacity:1"
           d="M 142.80701,55.009836 H 78.96104 v 53.256084 z"
           id="path4695" />
        <path
           style="opacity:1;vector-effect:none;fill:#b3b3b3;fill-opacity:1;stroke:none;stroke-width:0.13229167;stroke-linecap:butt;stroke-linejoin:miter;stroke-miterlimit:4;stroke-dasharray:none;stroke-dashoffset:0;stroke-opacity:1"
           d="M 79.04373,90.247806 V 108.29065 H 69.17696 V 99.258694 L 58.44486,108.025 V 92.139386 L 39.10584,108.025 V 99.152434 L 28.1081,108.025 H 13.97574 L 60.94193,69.612606 Z"
           id="path4697" />
        <path
           style="opacity:1;vector-effect:none;fill:#cccccc;fill-opacity:1;stroke:none;stroke-width:0.13229167;stroke-linecap:butt;stroke-linejoin:miter;stroke-miterlimit:4;stroke-dasharray:none;stroke-dashoffset:0;stroke-opacity:1"
           d="M 28.1081,108.025 39.10584,99.152434 V 108.025 L 58.44486,92.139386 V 108.025 l 10.7321,-8.766306 v 9.031956 z"
           id="path4699" />
        <path
           style="opacity:1;vector-effect:none;fill:#b3b3b3;fill-opacity:1;stroke:none;stroke-width:0.13229167;stroke-linecap:butt;stroke-linejoin:miter;stroke-miterlimit:4;stroke-dasharray:none;stroke-dashoffset:0;stroke-opacity:1"
           d="m 100.41692,90.279866 33.31199,-27.57405 23.96127,27.52092 z"
           id="path4701" />
        <path
           style="opacity:1;vector-effect:none;fill:#ffffff;fill-opacity:1;stroke:none;stroke-width:0.13229167;stroke-linecap:butt;stroke-linejoin:miter;stroke-miterlimit:4;stroke-dasharray:none;stroke-dashoffset:0;stroke-opacity:1"
           d="M 87.96179,100.57501 100.41692,90.279866 H 157.643 v 90.012274 z"
           id="path4703" />
      </g>
    </g>
  </g>
  <path
     id="path4587"
     d="M 25.658798,6.3057734 V -6.7506492"
     style="fill:none;stroke:#ffffff;stroke-width:1.55551994;stroke-linecap:butt;stroke-linejoin:miter;stroke-miterlimit:4;stroke-dasharray:none;stroke-opacity:1" />
</svg>
