<svg xmlns="http://www.w3.org/2000/svg" viewBox="0 0 448 240"><defs><style>.cls-1{fill:#ffdd59;}.cls-2{fill:#b0fde1;}.cls-3{fill:#00eb9a;}.cls-4{fill:#258bf5;}.cls-5{fill:#41a8ff;}.cls-6{fill:#1e85e2;}.cls-7{fill:#1f47b0;}.cls-8{fill:#2478e2;}.cls-9{fill:#bcdfff;}.cls-10{fill:#64b8ff;}.cls-11{fill:#91ccff;}</style></defs><title>Helidon_graphic_language 4</title><g id="Layer_1" data-name="Layer 1"><circle class="cls-1" cx="376.24" cy="91.57" r="35.26"/><path class="cls-2" d="M137.87,104.71a32.17,32.17,0,1,1-32.14-32.14A32.14,32.14,0,0,1,137.87,104.71Z"/><circle class="cls-2" cx="46.64" cy="112.38" r="23.93"/><path class="cls-2" d="M100.6,73s-7-14.72-26.89-14.79h-.58c-15.94.18-28.85,14.09-28.14,30q0,.15,0,.3c.37,6,3.57,47.68,3.57,47.68l57.16.65Z"/><path class="cls-2" d="M414,130.88A31.5,31.5,0,1,1,382.56,99.4,31.47,31.47,0,0,1,414,130.88Z"/><circle class="cls-2" cx="324.69" cy="138.39" r="23.43"/><path class="cls-2" d="M377.53,99.8s-6.83-14.41-26.33-14.48h-.56c-15.61.18-28.25,13.8-27.56,29.39q0,.15,0,.3c.36,5.84,3.5,46.69,3.5,46.69l56,.64Z"/><path class="cls-3" d="M381.41,155.71a14.5,14.5,0,0,0-3.47-1.93h0a24.5,24.5,0,0,0-2.57-1c-22.57-6.58-37-31.86-37-31.86-16.24-25.29-7.48-47.14-7.48-47.14l-.1.07a27.88,27.88,0,0,0,1-6.71c.17-16.07-13.19-29.25-29.84-29.42s-30.28,12.71-30.46,28.78a5.54,5.54,0,0,0,.14,1.53s4.8,27.63-10.64,50c0,0-12,18.18-28,18.08-15.11-.16-27.6-18.67-27.6-18.67-12.93-20.77-6.86-36.49-5.73-39a43.84,43.84,0,0,0,5.23-20,44.45,44.45,0,0,0-88.89-.94c0,2.56.55,7.41.55,7.41s4.53,36.44-6.19,59.49c0,0-11.43,28.42-42.39,37.23A19.33,19.33,0,0,0,62,164.09a37,37,0,0,0-20.24,32.64c-.22,20.45,15.87,37.21,35.94,37.42s36.5-16.2,36.72-36.65a37.19,37.19,0,0,0-.47-5.34s-6.22-37.91,9.4-58.79c0,0,13.43-20.33,36.71-28.94,24.86-8.54,38.79,17.81,38.79,17.81,8.94,16.37,5.3,37.14,5.3,37.14l.08,0a28,28,0,0,0-.55,4.94,28.31,28.31,0,0,0,56.58,1.89,1.06,1.06,0,0,0,0-.39c0-.3.1-1.06.1-1.36a23.3,23.3,0,0,0-.46-4.62c-.24-8.49.51-23.83,8-36.34,0,0,10.68-23.53,30.21-23.46,19.39,1.36,30.26,26.45,30.26,26.45,12.14,20.6,7.19,50.29,7.19,50.29l.12,0a30.22,30.22,0,0,0-.53,4.76,30.59,30.59,0,1,0,46.28-25.77ZM301.69,50.91a15.89,15.89,0,1,1-16.07,15.72A15.9,15.9,0,0,1,301.69,50.91Z"/><polygon class="cls-4" points="237.44 158.96 182.76 211.18 237.25 211.18 237.44 158.96"/><polygon class="cls-5" points="237.42 107.25 237.42 210.55 304.81 158.9 237.42 107.25"/><polygon class="cls-6" points="304.8 158.9 237.42 210.55 237.65 158.9 304.8 158.9"/><polygon class="cls-7" points="237.65 182.25 154.49 107.18 237.42 107.18 237.65 182.25"/><polygon class="cls-8" points="304.81 158.9 272.64 183.55 237.65 158.9 304.81 158.9"/><polygon class="cls-8" points="221.99 168.11 287.12 129.28 304.81 129.28 304.8 158.9 221.99 168.11"/><polygon class="cls-9" points="304.81 140.79 286.62 158.98 304.81 158.98 304.81 140.79"/><polygon class="cls-7" points="237.25 211.18 139.45 131.28 222.59 131.28 237.25 211.18"/><polygon class="cls-9" points="222.59 131.35 237.25 211.18 304.81 158.9 222.59 131.35"/><polygon class="cls-10" points="222.59 131.28 272.64 183.79 304.81 158.9 222.59 131.28"/><polygon class="cls-7" points="304.8 140.79 312.51 129.28 304.81 129.28 304.8 140.79"/><polygon class="cls-11" points="272.64 183.79 254.44 197.87 222.59 131.35 272.64 183.79"/><polygon class="cls-10" points="203.41 211.17 216.43 211.18 216.43 201.88 203.41 211.17"/><polygon class="cls-10" points="216.43 211.17 223.64 211.18 223.64 206.03 216.43 211.17"/><polygon class="cls-10" points="196.21 211.17 203.41 211.18 203.41 206.03 196.21 211.17"/><path class="cls-2" d="M152.07,211.88a15.42,15.42,0,1,1-15.4-15.4A15.4,15.4,0,0,1,152.07,211.88Z"/><circle class="cls-2" cx="108.35" cy="215.56" r="11.47"/><path class="cls-2" d="M134.21,196.67s-3.34-7.05-12.89-7.09H121A13.86,13.86,0,0,0,107.55,204v.15c.18,2.86,1.71,22.85,1.71,22.85l27.4.31Z"/></g></svg>