<svg xmlns="http://www.w3.org/2000/svg" viewBox="0 0 448 240"><defs><style>.cls-1{fill:#00eb9a;}.cls-2{fill:#52ff8c;opacity:0.5;}.cls-3{fill:#aaf9db;}.cls-4{fill:#91ccff;}.cls-5{fill:#bcdfff;}.cls-6{fill:#258bf5;}.cls-7{fill:#41a8ff;}.cls-8{fill:#1f47b0;}.cls-9{fill:#2267cf;}.cls-10{fill:#64b8ff;}.cls-11{fill:#00d98c;}.cls-12{fill:#b0fde1;}.cls-13{fill:#00b26f;}.cls-14{fill:#c0ffe7;}</style></defs><title>Helidon_graphic_language 4</title><g id="Layer_1" data-name="Layer 1"><path class="cls-1" d="M173.27,61.92H286.08V95.76L331.2,50.64,286.08,5.51V39.36H150.71V107h22.56ZM286.08,174.73H173.27V140.89L128.14,186l45.12,45.12V197.29H308.64V129.61H286.08Z"/><path class="cls-2" d="M194.15,3.41a.34.34,0,0,1,.27.09A2.6,2.6,0,0,1,195.62,5c.17.68,0,1.52-1.14,2.38a1.1,1.1,0,0,1-.33.16l-6.93-.19-52.7-1.44s-6.36-.27-10.81-.36c-3.78-.07-4.92-.06-4.52-.06s2.32,0,4.67-.08l5.42-.15L135.07,5,187.22,3.6Z"/><path class="cls-2" d="M218.54,92.39a.34.34,0,0,1,.27.09A2.6,2.6,0,0,1,220,94c.17.68,0,1.52-1.14,2.38a1.1,1.1,0,0,1-.33.16l-6.93-.19-52.7-1.44s-6.36-.27-10.81-.36c-3.78-.07-4.92-.06-4.52-.06s2.32,0,4.67-.08l5.42-.15,5.79-.21,52.15-1.43Z"/><path class="cls-3" d="M235.64,53.11a.34.34,0,0,1,.27.09,2.6,2.6,0,0,1,1.2,1.47c.17.68,0,1.52-1.14,2.38a1.1,1.1,0,0,1-.33.16L228.71,57,176,55.58s-6.36-.27-10.81-.36c-3.78-.07-4.92-.06-4.52-.06s2.32,0,4.67-.08l5.42-.15,5.79-.21,52.15-1.43Z"/><path class="cls-4" d="M272.37,141a.34.34,0,0,1-.27-.09,2.6,2.6,0,0,1-1.2-1.47c-.17-.68,0-1.52,1.14-2.38a1.1,1.1,0,0,1,.33-.16l6.93.19,52.7,1.44s6.36.27,10.81.36c3.78.07,4.92.06,4.52.06s-2.32,0-4.67.08l-5.42.15-5.79.21-52.15,1.43Z"/><path class="cls-5" d="M240.39,188.77a.34.34,0,0,1-.27-.09,2.6,2.6,0,0,1-1.2-1.47c-.17-.68,0-1.52,1.14-2.38a1.11,1.11,0,0,1,.33-.16l6.93.19,52.7,1.44s6.36.27,10.81.36c3.78.07,4.92.06,4.52.06s-2.32,0-4.67.08l-5.42.15-5.79.21-52.15,1.43Z"/><path class="cls-4" d="M240.39,236.59a.34.34,0,0,1-.27-.09,2.6,2.6,0,0,1-1.2-1.47c-.17-.68,0-1.52,1.14-2.38a1.11,1.11,0,0,1,.33-.16l6.93.19,52.7,1.44s6.36.27,10.81.36c3.78.07,4.92.06,4.52.06s-2.32,0-4.67.08l-5.42.15-5.79.21-52.15,1.43Z"/><polygon class="cls-6" points="184.25 191.05 117.5 151.26 97.75 151.26 98.03 181.57 184.25 191.05"/><polygon class="cls-7" points="168.44 128.62 168.44 234.54 99.38 181.62 168.44 128.62"/><polygon class="cls-6" points="168.41 181.67 225.11 234.46 168.44 234.54 168.41 181.67"/><polygon class="cls-5" points="99.39 181.62 168.44 234.54 168.2 181.62 99.39 181.62"/><polygon class="cls-8" points="168.2 205.54 253.42 128.62 168.44 128.62 168.2 205.54"/><polygon class="cls-4" points="98.03 181.57 132.35 206.88 168.2 181.62 98.03 181.57"/><polygon class="cls-9" points="98.03 158.87 90.42 151.26 98.03 151.26 98.03 158.87"/><polygon class="cls-5" points="98.03 158.87 120.73 181.57 98.03 181.57 98.03 158.87"/><polygon class="cls-10" points="256.55 96.29 270.7 96.3 270.7 86.2 256.55 96.29"/><polygon class="cls-10" points="270.7 96.3 278.53 96.3 278.53 90.71 270.7 96.3"/><polygon class="cls-10" points="248.72 96.3 256.55 96.3 256.55 90.71 248.72 96.3"/><polygon class="cls-10" points="204.21 234.53 186.69 234.54 186.69 222.04 204.21 234.53"/><polygon class="cls-10" points="186.69 234.53 177 234.54 177 227.62 186.69 234.53"/><polygon class="cls-10" points="213.9 234.53 204.21 234.54 204.2 227.62 213.9 234.53"/><polygon class="cls-1" points="273.25 59.34 330.86 25 347.9 25 347.66 51.16 273.25 59.34"/><polygon class="cls-11" points="286.9 5.46 286.9 96.88 346.5 51.2 286.9 5.46"/><polygon class="cls-1" points="286.92 51.25 238.25 96.57 286.9 96.88 286.92 51.25"/><polygon class="cls-12" points="346.49 51.2 286.9 96.88 287.11 51.2 346.49 51.2"/><polygon class="cls-13" points="287.11 71.85 213.56 5.46 286.9 5.46 287.11 71.85"/><polygon class="cls-3" points="347.66 51.16 318.05 73 287.11 51.2 347.66 51.16"/><polygon class="cls-13" points="347.66 31.57 354.23 25 347.66 25 347.66 31.57"/><polygon class="cls-14" points="347.66 31.57 328.07 51.16 347.66 51.16 347.66 31.57"/></g></svg>