<?xml version="1.0" encoding="UTF-8" standalone="no"?>
<svg
   xmlns:dc="http://purl.org/dc/elements/1.1/"
   xmlns:cc="http://creativecommons.org/ns#"
   xmlns:rdf="http://www.w3.org/1999/02/22-rdf-syntax-ns#"
   xmlns:svg="http://www.w3.org/2000/svg"
   xmlns="http://www.w3.org/2000/svg"
   width="50"
   height="650"
   viewBox="0 0 50 650"
   version="1.1">
  <circle style="fill:none;stroke:#ffffff;stroke-width:1.5" cx="25" cy="30.954914" r="23.5" />
  <path style="fill:#ffffff"
    d="m 30.823477,37.736533 h -10.57631 v -1.474476 l 5.587484,-6.208314 q 1.241663,-1.407958 1.707287,-2.283774 0.476707,-0.886902 0.476707,-1.829236 0,-1.263835 -0.76495,-2.073134 -0.764953,-0.809298 -2.039875,-0.809298 -1.529907,0 -2.38355,0.875816 -0.842557,0.864729 -0.842557,2.416809 h -2.050961 q 0,-2.228342 1.430129,-3.60304 1.441216,-1.374699 3.846939,-1.374699 2.250514,0 3.558693,1.186231 1.308179,1.175146 1.308179,3.137417 0,2.38355 -3.037636,5.676174 l -4.323648,4.689498 h 8.104069 z" />
  <path style="fill:none;stroke:#ffffff;stroke-width:1.5"
    d="M 25.877509,642.78675 V 54.535479" />
  <path style="fill:none;stroke:#ffffff;stroke-width:1.5"
    d="M 25.162787,7.250319 V -8.4735439" />
</svg>
