<svg xmlns="http://www.w3.org/2000/svg" viewBox="0 0 1170 325"><defs><style>.cls-1{fill:#2399ff;}.cls-2{fill:none;}</style></defs><title>Helidon_MP_blue</title><g id="Layer_1" data-name="Layer 1"><path class="cls-1" d="M281,179.53v0a2.46,2.46,0,0,0-.22-.61l-.07-.13a2.5,2.5,0,0,0-.4-.54l-24.12-24.12,6.8-5a2.61,2.61,0,0,0,1.92-2.45V126.26l6.42-6.43a2.5,2.5,0,0,0-1.77-4.27h-6.84a2.48,2.48,0,0,0-.4,0H233.35a2.5,2.5,0,0,0-1.49.49l-7.93,5.88L195.27,93.24a2.5,2.5,0,0,0-.53-.39l-.14-.07a2.47,2.47,0,0,0-.61-.22h0a2.51,2.51,0,0,0-.46,0h-85a2.5,2.5,0,0,0-1.77,4.27l63.47,63.47-48.33,34.47a2.5,2.5,0,0,0,1.45,4.54l70.16.06h0a2.5,2.5,0,0,0,.45,0l.08,0a2.5,2.5,0,0,0,.37-.11l.08,0a2.48,2.48,0,0,0,.38-.2h0l.09-.06,8-5.83,73.78,73.78A2.5,2.5,0,0,0,281,265V180A2.5,2.5,0,0,0,281,179.53Zm-8.49-2H224.14l27.92-20.41Zm-12.7-33.31H246.92l12.85-12.85Zm-63.77,0V101l43.16,43.15Zm38.18-23.67h25.59v3.75L243,141l-15.53-15.53ZM191,97.5V174L114.54,97.5Zm-59.87,96.75,42.66-30.42L191,181V194.3Zm64.88-45h58.32L196,191.88ZM276,259l-69-69,10.26-7.5H276Z"/><path class="cls-1" d="M353.37,130a28.06,28.06,0,0,1,9-7.24,25.42,25.42,0,0,1,11.58-2.6,32.12,32.12,0,0,1,10.41,1.6,19.39,19.39,0,0,1,8.06,5.21,24.21,24.21,0,0,1,5.17,9.3,45.89,45.89,0,0,1,1.82,13.83v48.62h-20.6V149.91a20.17,20.17,0,0,0-.82-6.2,9.81,9.81,0,0,0-2.39-4,8.83,8.83,0,0,0-3.88-2.17,19.66,19.66,0,0,0-5.24-.64,15.67,15.67,0,0,0-8.06,1.89,13.88,13.88,0,0,0-5.06,5.1v54.82h-20.6V89.17h20.6Z"/><path class="cls-1" d="M450.46,200.1a41.88,41.88,0,0,1-16.08-2.92,35.57,35.57,0,0,1-12-8,34.2,34.2,0,0,1-7.56-11.87,40.44,40.44,0,0,1-2.6-14.58V160a48.84,48.84,0,0,1,2.53-16.08,37,37,0,0,1,7.2-12.58,32.57,32.57,0,0,1,11.33-8.23,39.9,39.9,0,0,1,29.62-.21,29.41,29.41,0,0,1,10.66,7.7A32.76,32.76,0,0,1,480,142.5,52.17,52.17,0,0,1,482.19,158v8.77H433.07a21.46,21.46,0,0,0,2,6.84,17.66,17.66,0,0,0,3.92,5.24,17.26,17.26,0,0,0,5.6,3.39,20.23,20.23,0,0,0,7.2,1.21,25.54,25.54,0,0,0,10.41-2.1,21,21,0,0,0,8.2-6.52l10.12,11.33a30.58,30.58,0,0,1-4.63,5.13,31.4,31.4,0,0,1-6.56,4.46,38.69,38.69,0,0,1-8.52,3.14A43.1,43.1,0,0,1,450.46,200.1Zm-2.35-63.3a13.84,13.84,0,0,0-5.88,1.18,12.85,12.85,0,0,0-4.35,3.28,17.11,17.11,0,0,0-3,5,28.75,28.75,0,0,0-1.64,6.49h28.66v-1.64a20.77,20.77,0,0,0-.89-5.7,12.54,12.54,0,0,0-2.49-4.56,11.21,11.21,0,0,0-4.28-3A16.18,16.18,0,0,0,448.11,136.79Z"/><path class="cls-1" d="M515.62,198.67H494.95V89.17h20.67Z"/><path class="cls-1" d="M532.44,101.58a10.14,10.14,0,0,1,3.1-7.63q3.1-3,8.45-3a13.8,13.8,0,0,1,4.78.78,10.39,10.39,0,0,1,3.64,2.21,9.9,9.9,0,0,1,2.32,3.39,10.89,10.89,0,0,1,.82,4.24,11.06,11.06,0,0,1-.82,4.31,9.87,9.87,0,0,1-2.32,3.39,10.36,10.36,0,0,1-3.64,2.21,14.94,14.94,0,0,1-9.55,0,10.36,10.36,0,0,1-3.64-2.21,9.84,9.84,0,0,1-2.32-3.39A11.06,11.06,0,0,1,532.44,101.58Zm21.89,97.1H533.66V121.54h20.67Z"/><path class="cls-1" d="M568.09,159.54a59.54,59.54,0,0,1,2-16A37.94,37.94,0,0,1,576,131a26.64,26.64,0,0,1,9.48-8.06,28,28,0,0,1,12.83-2.85,24,24,0,0,1,10.52,2.21,25.18,25.18,0,0,1,8.09,6.2V89.17H637.6v109.5H619l-1-8.2a26.43,26.43,0,0,1-8.48,7.09,24.17,24.17,0,0,1-11.33,2.53,26.81,26.81,0,0,1-12.72-3A27.75,27.75,0,0,1,576,189a38,38,0,0,1-5.88-12.37,57,57,0,0,1-2-15.58Zm20.6,1.5a46.23,46.23,0,0,0,.78,8.77,22.67,22.67,0,0,0,2.53,7.09,13.32,13.32,0,0,0,4.56,4.78,12.8,12.8,0,0,0,6.88,1.75,15,15,0,0,0,8.3-2.14,14.42,14.42,0,0,0,5.17-5.92V144.92a14.1,14.1,0,0,0-5.17-6,15,15,0,0,0-8.16-2.1,13,13,0,0,0-6.92,1.75,13.17,13.17,0,0,0-4.6,4.81,23.85,23.85,0,0,0-2.57,7.2,45.8,45.8,0,0,0-.82,8.91Z"/><path class="cls-1" d="M650.36,159.39a48.64,48.64,0,0,1,2.42-15.61,35.71,35.71,0,0,1,7.06-12.44,32.49,32.49,0,0,1,11.44-8.23,38.15,38.15,0,0,1,15.5-3,38.6,38.6,0,0,1,15.61,3,32.78,32.78,0,0,1,11.51,8.23A35.46,35.46,0,0,1,721,143.78a48.67,48.67,0,0,1,2.42,15.61v1.5A48.58,48.58,0,0,1,721,176.54a35.54,35.54,0,0,1-7.09,12.4,32.55,32.55,0,0,1-11.44,8.2,42.39,42.39,0,0,1-31.12,0,32.44,32.44,0,0,1-11.48-8.2,35.5,35.5,0,0,1-7.09-12.4,48.55,48.55,0,0,1-2.42-15.65Zm20.6,1.5a43.58,43.58,0,0,0,.86,8.84,21.74,21.74,0,0,0,2.75,7.16,14.19,14.19,0,0,0,4.92,4.81,14.47,14.47,0,0,0,7.45,1.78,14.17,14.17,0,0,0,7.31-1.78,14.52,14.52,0,0,0,5-4.81,21.27,21.27,0,0,0,2.78-7.16,43.58,43.58,0,0,0,.86-8.84v-1.5a42.33,42.33,0,0,0-.86-8.66,22.11,22.11,0,0,0-2.78-7.2,14.53,14.53,0,0,0-5-4.92,14.28,14.28,0,0,0-7.41-1.82,13.94,13.94,0,0,0-7.31,1.82,14.31,14.31,0,0,0-4.92,4.92,22.61,22.61,0,0,0-2.75,7.2,42.33,42.33,0,0,0-.86,8.66Z"/><path class="cls-1" d="M755.08,121.54l.64,8.91a27,27,0,0,1,9.62-7.66,28.87,28.87,0,0,1,12.55-2.67,30.77,30.77,0,0,1,10,1.53,18.34,18.34,0,0,1,7.7,5,23.61,23.61,0,0,1,5,9.13,47.24,47.24,0,0,1,1.75,13.83v49h-20.6V149.48a19.41,19.41,0,0,0-.82-6.13,9,9,0,0,0-2.39-3.85,9.09,9.09,0,0,0-3.85-2,20.67,20.67,0,0,0-5.28-.61,14.61,14.61,0,0,0-7.81,2,15.26,15.26,0,0,0-5.24,5.42v54.39h-20.6V121.54Z"/><path class="cls-1" d="M883.54,94.88l26.66,75.28,26.52-75.28h28.09v103.8H943.35V170.3l2.14-49-28,77.35H902.79L874.85,121.4,877,170.3v28.37H855.6V94.88Z"/><path class="cls-1" d="M1007.8,162.1v36.57H986.41V94.88h40.49a49,49,0,0,1,16.43,2.57,35.48,35.48,0,0,1,12.26,7.16,30.61,30.61,0,0,1,7.66,10.91,35.23,35.23,0,0,1,2.64,13.72,33.79,33.79,0,0,1-2.64,13.62,28.15,28.15,0,0,1-7.66,10.34,35.22,35.22,0,0,1-12.26,6.59,53.77,53.77,0,0,1-16.43,2.32Zm0-17.32h19.11a24.27,24.27,0,0,0,7.88-1.14,14.41,14.41,0,0,0,5.42-3.17,12.39,12.39,0,0,0,3.1-4.88,18.66,18.66,0,0,0,1-6.2,20.93,20.93,0,0,0-1-6.45,15.33,15.33,0,0,0-3.1-5.49,15,15,0,0,0-5.42-3.81,19.85,19.85,0,0,0-7.88-1.43H1007.8Z"/><rect class="cls-2" width="1170" height="325"/></g></svg>