<svg xmlns="http://www.w3.org/2000/svg" viewBox="0 0 325 325"><defs><style>.cls-1{fill:#2399ff;}.cls-2{fill:none;}</style></defs><title>Secondary_logo_blue</title><g id="Layer_1" data-name="Layer 1"><path class="cls-1" d="M255,169.54v0a2.47,2.47,0,0,0-.22-.61l-.07-.13a2.5,2.5,0,0,0-.4-.53L227.83,141.8l7.65-5.59a2.63,2.63,0,0,0,1.95-2.45V111.42l7.06-7.06a2.5,2.5,0,0,0-1.77-4.27h-7.4a2.51,2.51,0,0,0-.48,0H203.37a2.5,2.5,0,0,0-1.49.49l-8.78,6.52L161.77,75.73a2.5,2.5,0,0,0-.53-.4l-.13-.07a2.46,2.46,0,0,0-.61-.22h0a2.5,2.5,0,0,0-.46,0H67.5a2.5,2.5,0,0,0-1.77,4.27L135,148.52l-52.8,37.66a2.5,2.5,0,0,0,1.45,4.54l76.35.07h0a2.5,2.5,0,0,0,.45,0l.08,0a2.49,2.49,0,0,0,.38-.11l.07,0a2.5,2.5,0,0,0,.39-.21h0l.1-.06,8.83-6.46,80.42,80.42A2.5,2.5,0,0,0,255,262.5V170A2.5,2.5,0,0,0,255,169.54Zm-8.49-2h-53.8l31.08-22.72Zm-14.13-36.25H217.6l14.74-14.74Zm-69.83,0V83.54l47.72,47.72ZM204.19,105h28.14v4.4l-18.43,18.43-17.24-17.24ZM157.5,80v84l-84-84ZM91.44,185.72l47.13-33.61L157.49,171v14.75Zm71.07-49.42h64.37L162.5,183.36ZM250,256.46l-75.61-75.61,11.43-8.36H250Z"/><rect class="cls-2" width="325" height="325"/></g></svg>