<svg xmlns="http://www.w3.org/2000/svg" viewBox="0 0 1170 325"><defs><style>.cls-1,.cls-3{fill:none;}.cls-1{stroke:#fff;stroke-linejoin:round;stroke-width:5px;}.cls-2{fill:#00ea99;}</style></defs><title>Helidon_SE_green</title><g id="Layer_1" data-name="Layer 1"><polyline class="cls-1" points="223.69 124.97 233.35 117.8 262.27 117.8 262.27 146.52 193.5 146.52"/><polyline class="cls-1" points="173.78 160.54 123.33 196.52 193.49 196.58 193.5 146.47"/><polygon class="cls-1" points="193.5 94.78 108.5 94.78 193.5 179.78 193.5 94.78"/><polygon class="cls-1" points="262.36 125 269.51 117.84 262.36 117.84 262.36 125"/><polyline class="cls-1" points="203.21 189.49 278.5 264.78 278.5 179.78 216.48 179.78"/><polyline class="cls-1" points="216.48 179.78 278.5 179.78 252.31 153.59"/><polyline class="cls-1" points="243.04 144.32 193.5 94.78 193.5 179.78"/><polygon class="cls-1" points="262.36 125 240.88 146.47 262.36 146.47 262.36 125"/><polygon class="cls-1" points="262.05 146.47 193.5 196.58 193.51 146.47 262.05 146.47"/><path class="cls-2" d="M353.37,129.73a28.05,28.05,0,0,1,9-7.24,25.42,25.42,0,0,1,11.58-2.6,32.12,32.12,0,0,1,10.41,1.6,19.39,19.39,0,0,1,8.06,5.21,24.22,24.22,0,0,1,5.17,9.3,45.92,45.92,0,0,1,1.82,13.83v48.62h-20.6V149.69a20.14,20.14,0,0,0-.82-6.2,9.81,9.81,0,0,0-2.39-4,8.83,8.83,0,0,0-3.89-2.17,19.65,19.65,0,0,0-5.24-.64,15.67,15.67,0,0,0-8.06,1.89,13.88,13.88,0,0,0-5.06,5.1v54.82h-20.6V88.95h20.6Z"/><path class="cls-2" d="M450.46,199.87A41.88,41.88,0,0,1,434.39,197a35.57,35.57,0,0,1-12-8,34.21,34.21,0,0,1-7.56-11.87,40.46,40.46,0,0,1-2.6-14.58v-2.78a48.84,48.84,0,0,1,2.53-16.08,37,37,0,0,1,7.2-12.58,32.57,32.57,0,0,1,11.33-8.23,39.9,39.9,0,0,1,29.62-.21,29.4,29.4,0,0,1,10.66,7.7A32.77,32.77,0,0,1,480,142.27a52.17,52.17,0,0,1,2.17,15.54v8.77H433.07a21.44,21.44,0,0,0,2,6.84,17.68,17.68,0,0,0,3.92,5.24,17.26,17.26,0,0,0,5.6,3.39,20.23,20.23,0,0,0,7.2,1.21,25.54,25.54,0,0,0,10.41-2.1,21,21,0,0,0,8.2-6.52L480.55,186a30.58,30.58,0,0,1-4.63,5.13,31.4,31.4,0,0,1-6.56,4.46,38.69,38.69,0,0,1-8.52,3.14A43.09,43.09,0,0,1,450.46,199.87Zm-2.35-63.3a13.83,13.83,0,0,0-5.88,1.18,12.86,12.86,0,0,0-4.35,3.28,17.13,17.13,0,0,0-3,5,28.75,28.75,0,0,0-1.64,6.49h28.66V150.9a20.81,20.81,0,0,0-.89-5.7,12.53,12.53,0,0,0-2.5-4.56,11.21,11.21,0,0,0-4.28-3A16.17,16.17,0,0,0,448.11,136.57Z"/><path class="cls-2" d="M515.62,198.45H494.95V88.95h20.67Z"/><path class="cls-2" d="M532.45,101.35a10.15,10.15,0,0,1,3.1-7.63,11.65,11.65,0,0,1,8.45-3,13.8,13.8,0,0,1,4.78.78,10.39,10.39,0,0,1,3.64,2.21,9.9,9.9,0,0,1,2.32,3.39,10.9,10.9,0,0,1,.82,4.24,11.08,11.08,0,0,1-.82,4.31,9.87,9.87,0,0,1-2.32,3.39,10.36,10.36,0,0,1-3.64,2.21,14.94,14.94,0,0,1-9.55,0,10.36,10.36,0,0,1-3.64-2.21,9.86,9.86,0,0,1-2.32-3.39A11.06,11.06,0,0,1,532.45,101.35Zm21.89,97.1H533.66V121.31h20.67Z"/><path class="cls-2" d="M568.09,159.31a59.5,59.5,0,0,1,2-16A37.92,37.92,0,0,1,576,130.8a26.64,26.64,0,0,1,9.48-8.06,28,28,0,0,1,12.83-2.85,24,24,0,0,1,10.51,2.21,25.18,25.18,0,0,1,8.09,6.2V88.95H637.6v109.5H619l-1-8.2a26.43,26.43,0,0,1-8.48,7.09,24.17,24.17,0,0,1-11.33,2.53,26.82,26.82,0,0,1-12.73-3,27.75,27.75,0,0,1-9.45-8.16,38,38,0,0,1-5.88-12.37,56.91,56.91,0,0,1-2-15.58Zm20.6,1.5a46.23,46.23,0,0,0,.78,8.77,22.69,22.69,0,0,0,2.53,7.09,13.33,13.33,0,0,0,4.56,4.78,12.8,12.8,0,0,0,6.88,1.75,15,15,0,0,0,8.3-2.14,14.43,14.43,0,0,0,5.17-5.92V144.7a14.11,14.11,0,0,0-5.17-6,15,15,0,0,0-8.16-2.1,13,13,0,0,0-6.92,1.75,13.17,13.17,0,0,0-4.6,4.81,23.79,23.79,0,0,0-2.57,7.2,45.8,45.8,0,0,0-.82,8.91Z"/><path class="cls-2" d="M650.36,159.17a48.64,48.64,0,0,1,2.42-15.61,35.71,35.71,0,0,1,7.06-12.44,32.49,32.49,0,0,1,11.44-8.23,38.16,38.16,0,0,1,15.51-3,38.6,38.6,0,0,1,15.61,3,32.77,32.77,0,0,1,11.51,8.23A35.45,35.45,0,0,1,721,143.56a48.67,48.67,0,0,1,2.42,15.61v1.5A48.58,48.58,0,0,1,721,176.31a35.53,35.53,0,0,1-7.09,12.4,32.54,32.54,0,0,1-11.44,8.2,42.39,42.39,0,0,1-31.12,0,32.46,32.46,0,0,1-11.48-8.2,35.5,35.5,0,0,1-7.09-12.4,48.55,48.55,0,0,1-2.42-15.65Zm20.6,1.5a43.58,43.58,0,0,0,.86,8.84,21.74,21.74,0,0,0,2.74,7.16,14.2,14.2,0,0,0,4.92,4.81,14.47,14.47,0,0,0,7.45,1.78,14.17,14.17,0,0,0,7.31-1.78,14.52,14.52,0,0,0,5-4.81,21.27,21.27,0,0,0,2.78-7.16,43.58,43.58,0,0,0,.86-8.84v-1.5a42.33,42.33,0,0,0-.86-8.66,22.11,22.11,0,0,0-2.78-7.2,14.53,14.53,0,0,0-5-4.92,14.28,14.28,0,0,0-7.41-1.82,13.94,13.94,0,0,0-7.31,1.82,14.32,14.32,0,0,0-4.92,4.92,22.61,22.61,0,0,0-2.74,7.2,42.33,42.33,0,0,0-.86,8.66Z"/><path class="cls-2" d="M755.08,121.31l.64,8.91a27,27,0,0,1,9.62-7.66,28.87,28.87,0,0,1,12.55-2.67,30.77,30.77,0,0,1,10,1.53,18.34,18.34,0,0,1,7.7,5,23.62,23.62,0,0,1,5,9.13,47.24,47.24,0,0,1,1.75,13.83v49h-20.6V149.26a19.44,19.44,0,0,0-.82-6.13,9,9,0,0,0-2.39-3.85,9.09,9.09,0,0,0-3.85-2,20.67,20.67,0,0,0-5.28-.61,14.62,14.62,0,0,0-7.81,2,15.27,15.27,0,0,0-5.24,5.42v54.39h-20.6V121.31Z"/><path class="cls-2" d="M909.42,171.22a14.33,14.33,0,0,0-.78-4.88,9.48,9.48,0,0,0-3-4,27.75,27.75,0,0,0-6.2-3.64,98.05,98.05,0,0,0-10.23-3.78,125.26,125.26,0,0,1-13.44-5.13,49.36,49.36,0,0,1-11-6.74,30,30,0,0,1-7.49-8.95,24.44,24.44,0,0,1-2.74-11.83,25.21,25.21,0,0,1,2.82-11.87,26.76,26.76,0,0,1,7.91-9.16,38.89,38.89,0,0,1,12.12-5.88,53.65,53.65,0,0,1,15.43-2.1,48.72,48.72,0,0,1,15.68,2.39,36,36,0,0,1,12,6.67,29.51,29.51,0,0,1,7.7,10.16,30.38,30.38,0,0,1,2.71,12.87H909.49a17.27,17.27,0,0,0-1-6.06,12.31,12.31,0,0,0-3.17-4.78,14.79,14.79,0,0,0-5.35-3.1,23.28,23.28,0,0,0-7.56-1.1,25.67,25.67,0,0,0-7.31.93,14.86,14.86,0,0,0-5.13,2.57,10.8,10.8,0,0,0-3.07,3.85,11,11,0,0,0-1,4.71q0,5.13,5.24,8.59t15.36,6.45a101.09,101.09,0,0,1,14.93,5.85,44.42,44.42,0,0,1,10.76,7.27,27.75,27.75,0,0,1,6.52,9.13,28.43,28.43,0,0,1,2.21,11.48,26.88,26.88,0,0,1-2.67,12.19,25.18,25.18,0,0,1-7.59,9,35.91,35.91,0,0,1-11.87,5.63,57.08,57.08,0,0,1-15.5,2A60,60,0,0,1,883,199a49.32,49.32,0,0,1-9.8-2.75,42.55,42.55,0,0,1-8.66-4.63,32,32,0,0,1-7-6.56,29.58,29.58,0,0,1-4.63-8.59,32.24,32.24,0,0,1-1.67-10.66h21.46a19.15,19.15,0,0,0,1.5,8,13.64,13.64,0,0,0,4.17,5.31,17.32,17.32,0,0,0,6.45,3,35.32,35.32,0,0,0,8.41.93,25.87,25.87,0,0,0,7.2-.89,14.77,14.77,0,0,0,5.06-2.46,9.73,9.73,0,0,0,3-3.74A11.41,11.41,0,0,0,909.42,171.22Z"/><path class="cls-2" d="M1010.72,153.47H969.66v27.8h48.19v17.18H948.27V94.65h69.44V112h-48v24.74h41.06Z"/><path class="cls-2" d="M281,179.31v0a2.46,2.46,0,0,0-.22-.61l-.07-.13a2.5,2.5,0,0,0-.4-.54l-24.12-24.12,6.8-5a2.61,2.61,0,0,0,1.92-2.45V126l6.42-6.43a2.5,2.5,0,0,0-1.77-4.27h-6.84a2.48,2.48,0,0,0-.4,0H233.35a2.5,2.5,0,0,0-1.49.49l-7.93,5.88L195.27,93a2.5,2.5,0,0,0-.53-.39l-.14-.07a2.47,2.47,0,0,0-.61-.22h0a2.51,2.51,0,0,0-.46,0h-85a2.5,2.5,0,0,0-1.77,4.27L170.2,160l-48.33,34.47a2.5,2.5,0,0,0,1.45,4.54l70.16.06h0a2.5,2.5,0,0,0,.45,0l.08,0a2.5,2.5,0,0,0,.37-.11l.08,0a2.48,2.48,0,0,0,.38-.2h0l.09-.06,8-5.83,73.78,73.78a2.5,2.5,0,0,0,4.27-1.77v-85A2.5,2.5,0,0,0,281,179.31Zm-8.49-2H224.14l27.92-20.41ZM259.77,144H246.92l12.85-12.85ZM196,144V100.81L239.16,144Zm38.18-23.67h25.59v3.75L243,140.78l-15.53-15.53ZM191,97.28v76.46L114.54,97.28ZM131.13,194l42.66-30.42L191,180.81v13.27ZM196,149h58.32L196,191.65Zm80,109.72-69-69,10.26-7.5H276Z"/><rect class="cls-3" y="-0.22" width="1170" height="325"/></g></svg>