<svg xmlns="http://www.w3.org/2000/svg" viewBox="0 0 1170 325"><defs><style>.cls-1,.cls-3{fill:none;}.cls-1{stroke:#fff;stroke-linejoin:round;stroke-width:5px;}.cls-2{fill:#2399ff;}</style></defs><title>Helidon_SE_blue</title><g id="Layer_1" data-name="Layer 1"><polyline class="cls-1" points="223.69 125.19 233.35 118.02 262.27 118.02 262.27 146.74 193.5 146.74"/><polyline class="cls-1" points="173.78 160.76 123.33 196.74 193.49 196.8 193.5 146.69"/><polygon class="cls-1" points="193.5 95 108.5 95 193.5 180 193.5 95"/><polygon class="cls-1" points="262.36 125.22 269.51 118.06 262.36 118.06 262.36 125.22"/><polyline class="cls-1" points="203.21 189.71 278.5 265 278.5 180 216.48 180"/><polyline class="cls-1" points="216.48 180 278.5 180 252.31 153.81"/><polyline class="cls-1" points="243.04 144.54 193.5 95 193.5 180"/><polygon class="cls-1" points="262.36 125.22 240.88 146.69 262.36 146.69 262.36 125.22"/><polygon class="cls-1" points="262.05 146.69 193.5 196.8 193.51 146.69 262.05 146.69"/><path class="cls-2" d="M353.37,130a28.05,28.05,0,0,1,9-7.24,25.42,25.42,0,0,1,11.58-2.6,32.12,32.12,0,0,1,10.41,1.6,19.39,19.39,0,0,1,8.06,5.21,24.22,24.22,0,0,1,5.17,9.3,45.92,45.92,0,0,1,1.82,13.83v48.62h-20.6V149.91a20.14,20.14,0,0,0-.82-6.2,9.81,9.81,0,0,0-2.39-4,8.83,8.83,0,0,0-3.89-2.17,19.65,19.65,0,0,0-5.24-.64,15.67,15.67,0,0,0-8.06,1.89,13.88,13.88,0,0,0-5.06,5.1v54.82h-20.6V89.17h20.6Z"/><path class="cls-2" d="M450.46,200.1a41.88,41.88,0,0,1-16.08-2.92,35.57,35.57,0,0,1-12-8,34.21,34.21,0,0,1-7.56-11.87,40.46,40.46,0,0,1-2.6-14.58V160a48.84,48.84,0,0,1,2.53-16.08,37,37,0,0,1,7.2-12.58,32.57,32.57,0,0,1,11.33-8.23,39.9,39.9,0,0,1,29.62-.21,29.4,29.4,0,0,1,10.66,7.7A32.77,32.77,0,0,1,480,142.5,52.17,52.17,0,0,1,482.19,158v8.77H433.07a21.44,21.44,0,0,0,2,6.84,17.68,17.68,0,0,0,3.92,5.24,17.26,17.26,0,0,0,5.6,3.39,20.23,20.23,0,0,0,7.2,1.21,25.54,25.54,0,0,0,10.41-2.1,21,21,0,0,0,8.2-6.52l10.12,11.33a30.58,30.58,0,0,1-4.63,5.13,31.4,31.4,0,0,1-6.56,4.46,38.69,38.69,0,0,1-8.52,3.14A43.09,43.09,0,0,1,450.46,200.1Zm-2.35-63.3a13.83,13.83,0,0,0-5.88,1.18,12.86,12.86,0,0,0-4.35,3.28,17.13,17.13,0,0,0-3,5,28.75,28.75,0,0,0-1.64,6.49h28.66v-1.64a20.81,20.81,0,0,0-.89-5.7,12.53,12.53,0,0,0-2.5-4.56,11.21,11.21,0,0,0-4.28-3A16.17,16.17,0,0,0,448.11,136.79Z"/><path class="cls-2" d="M515.62,198.67H494.95V89.17h20.67Z"/><path class="cls-2" d="M532.45,101.58a10.15,10.15,0,0,1,3.1-7.63A11.65,11.65,0,0,1,544,91a13.8,13.8,0,0,1,4.78.78,10.39,10.39,0,0,1,3.64,2.21,9.9,9.9,0,0,1,2.32,3.39,10.9,10.9,0,0,1,.82,4.24,11.08,11.08,0,0,1-.82,4.31,9.87,9.87,0,0,1-2.32,3.39,10.36,10.36,0,0,1-3.64,2.21,14.94,14.94,0,0,1-9.55,0,10.36,10.36,0,0,1-3.64-2.21,9.86,9.86,0,0,1-2.32-3.39A11.06,11.06,0,0,1,532.45,101.58Zm21.89,97.1H533.66V121.54h20.67Z"/><path class="cls-2" d="M568.09,159.54a59.5,59.5,0,0,1,2-16A37.92,37.92,0,0,1,576,131a26.64,26.64,0,0,1,9.48-8.06,28,28,0,0,1,12.83-2.85,24,24,0,0,1,10.51,2.21,25.18,25.18,0,0,1,8.09,6.2V89.17H637.6v109.5H619l-1-8.2a26.43,26.43,0,0,1-8.48,7.09,24.17,24.17,0,0,1-11.33,2.53,26.82,26.82,0,0,1-12.73-3A27.75,27.75,0,0,1,576,189a38,38,0,0,1-5.88-12.37,56.91,56.91,0,0,1-2-15.58Zm20.6,1.5a46.23,46.23,0,0,0,.78,8.77,22.69,22.69,0,0,0,2.53,7.09,13.33,13.33,0,0,0,4.56,4.78,12.8,12.8,0,0,0,6.88,1.75,15,15,0,0,0,8.3-2.14,14.43,14.43,0,0,0,5.17-5.92V144.92a14.11,14.11,0,0,0-5.17-6,15,15,0,0,0-8.16-2.1,13,13,0,0,0-6.92,1.75,13.17,13.17,0,0,0-4.6,4.81,23.79,23.79,0,0,0-2.57,7.2,45.8,45.8,0,0,0-.82,8.91Z"/><path class="cls-2" d="M650.36,159.39a48.64,48.64,0,0,1,2.42-15.61,35.71,35.71,0,0,1,7.06-12.44,32.49,32.49,0,0,1,11.44-8.23,38.16,38.16,0,0,1,15.51-3,38.6,38.6,0,0,1,15.61,3,32.77,32.77,0,0,1,11.51,8.23A35.45,35.45,0,0,1,721,143.78a48.67,48.67,0,0,1,2.42,15.61v1.5A48.58,48.58,0,0,1,721,176.54a35.53,35.53,0,0,1-7.09,12.4,32.54,32.54,0,0,1-11.44,8.2,42.39,42.39,0,0,1-31.12,0,32.46,32.46,0,0,1-11.48-8.2,35.5,35.5,0,0,1-7.09-12.4,48.55,48.55,0,0,1-2.42-15.65Zm20.6,1.5a43.58,43.58,0,0,0,.86,8.84,21.74,21.74,0,0,0,2.74,7.16,14.2,14.2,0,0,0,4.92,4.81,14.47,14.47,0,0,0,7.45,1.78,14.17,14.17,0,0,0,7.31-1.78,14.52,14.52,0,0,0,5-4.81,21.27,21.27,0,0,0,2.78-7.16,43.58,43.58,0,0,0,.86-8.84v-1.5a42.33,42.33,0,0,0-.86-8.66,22.11,22.11,0,0,0-2.78-7.2,14.53,14.53,0,0,0-5-4.92,14.28,14.28,0,0,0-7.41-1.82,13.94,13.94,0,0,0-7.31,1.82,14.32,14.32,0,0,0-4.92,4.92,22.61,22.61,0,0,0-2.74,7.2,42.33,42.33,0,0,0-.86,8.66Z"/><path class="cls-2" d="M755.08,121.54l.64,8.91a27,27,0,0,1,9.62-7.66,28.87,28.87,0,0,1,12.55-2.67,30.77,30.77,0,0,1,10,1.53,18.34,18.34,0,0,1,7.7,5,23.62,23.62,0,0,1,5,9.13,47.24,47.24,0,0,1,1.75,13.83v49h-20.6V149.48a19.44,19.44,0,0,0-.82-6.13,9,9,0,0,0-2.39-3.85,9.09,9.09,0,0,0-3.85-2,20.67,20.67,0,0,0-5.28-.61,14.62,14.62,0,0,0-7.81,2,15.27,15.27,0,0,0-5.24,5.42v54.39h-20.6V121.54Z"/><path class="cls-2" d="M909.42,171.44a14.33,14.33,0,0,0-.78-4.88,9.48,9.48,0,0,0-3-4,27.75,27.75,0,0,0-6.2-3.64,98.05,98.05,0,0,0-10.23-3.78A125.26,125.26,0,0,1,875.74,150a49.36,49.36,0,0,1-11-6.74,30,30,0,0,1-7.49-8.95,24.44,24.44,0,0,1-2.74-11.83,25.21,25.21,0,0,1,2.82-11.87,26.76,26.76,0,0,1,7.91-9.16,38.89,38.89,0,0,1,12.12-5.88,53.65,53.65,0,0,1,15.43-2.1,48.72,48.72,0,0,1,15.68,2.39,36,36,0,0,1,12,6.67,29.51,29.51,0,0,1,7.7,10.16,30.38,30.38,0,0,1,2.71,12.87H909.49a17.27,17.27,0,0,0-1-6.06,12.31,12.31,0,0,0-3.17-4.78,14.79,14.79,0,0,0-5.35-3.1,23.28,23.28,0,0,0-7.56-1.1,25.67,25.67,0,0,0-7.31.93,14.86,14.86,0,0,0-5.13,2.57,10.8,10.8,0,0,0-3.07,3.85,11,11,0,0,0-1,4.71q0,5.13,5.24,8.59t15.36,6.45a101.09,101.09,0,0,1,14.93,5.85,44.42,44.42,0,0,1,10.76,7.27,27.75,27.75,0,0,1,6.52,9.13,28.43,28.43,0,0,1,2.21,11.48,26.88,26.88,0,0,1-2.67,12.19,25.18,25.18,0,0,1-7.59,9,35.91,35.91,0,0,1-11.87,5.63,57.08,57.08,0,0,1-15.5,2,60,60,0,0,1-10.27-.89,49.32,49.32,0,0,1-9.8-2.75,42.55,42.55,0,0,1-8.66-4.63,32,32,0,0,1-7-6.56,29.58,29.58,0,0,1-4.63-8.59A32.24,32.24,0,0,1,851.25,166h21.46a19.15,19.15,0,0,0,1.5,8,13.64,13.64,0,0,0,4.17,5.31,17.32,17.32,0,0,0,6.45,3,35.32,35.32,0,0,0,8.41.93,25.87,25.87,0,0,0,7.2-.89,14.77,14.77,0,0,0,5.06-2.46,9.73,9.73,0,0,0,3-3.74A11.41,11.41,0,0,0,909.42,171.44Z"/><path class="cls-2" d="M1010.72,153.69H969.66v27.8h48.19v17.18H948.27V94.88h69.44V112.2h-48v24.74h41.06Z"/><path class="cls-2" d="M281,179.53v0a2.46,2.46,0,0,0-.22-.61l-.07-.13a2.5,2.5,0,0,0-.4-.54l-24.12-24.12,6.8-5a2.61,2.61,0,0,0,1.92-2.45V126.26l6.42-6.43a2.5,2.5,0,0,0-1.77-4.27h-6.84a2.48,2.48,0,0,0-.4,0H233.35a2.5,2.5,0,0,0-1.49.49l-7.93,5.88L195.27,93.24a2.5,2.5,0,0,0-.53-.39l-.14-.07a2.47,2.47,0,0,0-.61-.22h0a2.51,2.51,0,0,0-.46,0h-85a2.5,2.5,0,0,0-1.77,4.27l63.47,63.47-48.33,34.47a2.5,2.5,0,0,0,1.45,4.54l70.16.06h0a2.5,2.5,0,0,0,.45,0l.08,0a2.5,2.5,0,0,0,.37-.11l.08,0a2.48,2.48,0,0,0,.38-.2h0l.09-.06,8-5.83,73.78,73.78A2.5,2.5,0,0,0,281,265V180A2.5,2.5,0,0,0,281,179.53Zm-8.49-2H224.14l27.92-20.41Zm-12.7-33.31H246.92l12.85-12.85Zm-63.77,0V101l43.16,43.15Zm38.18-23.67h25.59v3.75L243,141l-15.53-15.53ZM191,97.5V174L114.54,97.5Zm-59.87,96.75,42.66-30.42L191,181V194.3Zm64.88-45h58.32L196,191.88ZM276,259l-69-69,10.26-7.5H276Z"/><rect class="cls-3" width="1170" height="325"/></g></svg>