<svg xmlns="http://www.w3.org/2000/svg" viewBox="0 0 448 240"><defs><style>.cls-1{fill:#00eb9a;}.cls-2{fill:#00d98c;}.cls-3{fill:#b0fde1;}.cls-16,.cls-4,.cls-5{fill:none;stroke-miterlimit:10;stroke-width:2px;}.cls-4{stroke:#00b26f;}.cls-5{stroke:#b0fde1;}.cls-6{fill:#00b26f;}.cls-7{opacity:0.5;}.cls-8{fill:#52ff8c;}.cls-9{fill:#8cf9cf;}.cls-10{fill:#1f47b0;}.cls-11{fill:#bcdfff;}.cls-12{fill:#2478e2;}.cls-13{fill:#1c4182;}.cls-14{fill:#41a8ff;}.cls-15{fill:#258bf5;}.cls-16{stroke:#8cf9cf;}.cls-17{fill:#aaf9db;}.cls-18{fill:#c0ffe7;}</style></defs><title>Helidon_graphic_language 4</title><g id="Layer_1" data-name="Layer 1"><polygon class="cls-1" points="125.59 119.96 125.59 169.53 168.52 194.31 211.44 169.53 211.44 119.96 168.52 95.18 125.59 119.96"/><polygon class="cls-1" points="211.44 119.96 211.44 169.53 254.37 194.31 297.3 169.53 297.3 119.96 254.37 95.18 211.44 119.96"/><polygon class="cls-1" points="168.52 45.64 168.52 95.2 211.44 119.99 254.37 95.2 254.37 45.64 211.44 20.85 168.52 45.64"/><polygon class="cls-2" points="193.93 74.67 193.93 95.33 211.82 105.66 229.71 95.33 229.71 74.67 211.82 64.34 193.93 74.67"/><polygon class="cls-2" points="158.55 154.28 158.55 165.79 168.52 171.55 178.49 165.79 178.49 154.28 168.52 148.52 158.55 154.28"/><path class="cls-3" d="M375.16,121.7a13.9,13.9,0,1,1-13.89-13.89A13.89,13.89,0,0,1,375.16,121.7Z"/><circle class="cls-3" cx="335.74" cy="125.01" r="10.34"/><path class="cls-3" d="M359.06,108s-3-6.36-11.62-6.39h-.25a12.5,12.5,0,0,0-12.16,13v.13c.16,2.58,1.54,20.6,1.54,20.6l24.7.28Z"/><path class="cls-3" d="M111.48,131.49a8.82,8.82,0,1,1-8.81-8.81A8.81,8.81,0,0,1,111.48,131.49Z"/><circle class="cls-3" cx="86.47" cy="133.59" r="6.56"/><path class="cls-3" d="M101.26,122.79a8.07,8.07,0,0,0-7.37-4.05h-.16A7.93,7.93,0,0,0,86,127V127c.1,1.63,1,13.07,1,13.07l15.67.18Z"/><line class="cls-4" x1="211.8" y1="171.41" x2="211.8" y2="236.93"/><line class="cls-4" x1="206.04" y1="220.52" x2="206.04" y2="236.93"/><line class="cls-4" x1="206.04" y1="184.36" x2="206.04" y2="217.19"/><polyline class="cls-5" points="206.03 169.65 206.03 136.83 190.85 121.64"/><polyline class="cls-4" points="194.5 220.52 194.5 236.94 115.49 236.94"/><line class="cls-4" x1="194.5" y1="183.67" x2="194.5" y2="216.49"/><polyline class="cls-4" points="194.5 180.67 194.5 147.85 169.6 122.95"/><line class="cls-5" x1="217.57" y1="205.62" x2="217.57" y2="236.93"/><line class="cls-4" x1="200.27" y1="107.91" x2="200.27" y2="236.93"/><line class="cls-4" x1="200.27" y1="142.2" x2="178.13" y2="120.06"/><line class="cls-4" x1="194.37" y1="168.98" x2="179.18" y2="153.79"/><line class="cls-5" x1="222.75" y1="181.6" x2="254.66" y2="149.69"/><line class="cls-5" x1="217.9" y1="152.79" x2="260.17" y2="110.51"/><polygon class="cls-2" points="254.45 74.67 254.45 95.33 272.34 105.66 290.23 95.33 290.23 74.67 272.34 64.34 254.45 74.67"/><polygon class="cls-2" points="254.37 184.87 254.37 194.21 262.46 198.88 270.55 194.21 270.55 184.87 262.46 180.2 254.37 184.87"/><polygon class="cls-1" points="109.42 160.53 109.42 169.87 117.5 174.54 125.59 169.87 125.59 160.53 117.5 155.86 109.42 160.53"/><polygon class="cls-6" points="145.63 81.98 145.63 95.2 157.07 101.81 168.52 95.2 168.52 81.98 157.07 75.38 145.63 81.98"/><g class="cls-7"><path class="cls-8" d="M306.57,36.66a.1.1,0,0,1,0-.07c-.13-.29-.19-.9.65-1l.11,0,1.66,1.22,18.22,13.36,2.59,1.92c1.83,1.32,1.11.78-.05,0l-2.78-1.85-18.63-12.5Z"/></g><g class="cls-7"><path class="cls-8" d="M286.23,57a.1.1,0,0,1,0-.07c-.13-.29-.19-.9.65-1l.11,0,1.66,1.22,18.23,13.36,2.59,1.92c1.83,1.32,1.11.78-.05,0l-2.78-1.85-18.63-12.5Z"/></g><g class="cls-7"><path class="cls-8" d="M311,57a.1.1,0,0,1,0-.07c-.13-.29-.19-.9.65-1l.11,0,1.66,1.22,18.23,13.36,2.59,1.92c1.83,1.32,1.11.78-.05,0l-2.78-1.85-18.63-12.5Z"/></g><polygon class="cls-1" points="294.62 41.9 281.17 41.91 281.17 32.31 294.62 41.9"/><polygon class="cls-3" points="281.13 22.7 297.63 22.7 281.08 39.46 281.13 22.7"/><polygon class="cls-3" points="264.58 37.8 281.08 37.8 264.58 54.27 264.58 37.8"/><polygon class="cls-1" points="264.58 37.8 281.13 37.81 281.13 22.7 264.58 37.8"/><polygon class="cls-6" points="281.17 32.31 273.55 26.82 268.03 26.82 268.03 32.31 281.17 32.31"/><polygon class="cls-3" points="268.03 28.19 272.14 32.31 268.03 32.31 268.03 28.19"/><polygon class="cls-9" points="268.03 32.31 281.17 41.91 281.17 32.31 268.03 32.31"/><polygon class="cls-1" points="268.03 26.82 268.03 28.19 266.65 26.82 268.03 26.82"/><polygon class="cls-10" points="182.29 3.96 187.69 3.68 187.64 8.21 182.29 3.96"/><polygon class="cls-11" points="186.8 7.55 182.59 29.5 187.27 18.9 187.64 8.21 186.8 7.55"/><polygon class="cls-12" points="187.69 3.68 194.4 3.34 209.07 17.05 191.42 34.47 186.77 29.81 187.61 11.52 187.69 3.68"/><polygon class="cls-10" points="182.59 29.5 186.77 29.81 187.61 11.52 182.59 29.5"/><polygon class="cls-13" points="196.3 39.34 192.5 39.54 182.59 29.5 186.77 29.81 196.3 39.34"/><polygon class="cls-14" points="209.07 17.05 243.26 42.06 197.23 40.64 191.42 34.47 209.07 17.05"/><polygon class="cls-15" points="201.41 24.61 186.77 29.81 197.23 40.64 243.26 42.06 201.41 24.61"/><polygon class="cls-10" points="211.72 18.99 229.74 18.04 221.82 26.38 211.72 18.99"/><polygon class="cls-12" points="239.05 8.27 239.93 25.84 231.2 33.24 221.82 26.38 239.05 8.27"/><polygon class="cls-13" points="226.27 18.22 229.74 18.04 239.05 8.27 226.27 18.22"/><polygon class="cls-10" points="237.02 37.5 246.23 36.55 233.5 31.12 231.2 33.24 237.02 37.5"/><polygon class="cls-11" points="187.64 8.21 201.41 24.61 186.77 29.81 187.64 8.21"/><polyline class="cls-16" points="217.57 176.81 217.57 129.08 239.07 107.58"/><line class="cls-5" x1="212.14" y1="131.59" x2="188.47" y2="107.91"/><line class="cls-5" x1="212.14" y1="119.65" x2="246.42" y2="85.38"/><line class="cls-4" x1="211.8" y1="82.63" x2="211.8" y2="164.57"/><polyline class="cls-4" points="253.39 128.6 223.34 158.64 223.34 236.94 318.42 236.94"/><polyline class="cls-4" points="217.57 191.04 217.57 143.32 269.23 91.66"/><polygon class="cls-1" points="327.79 157.13 351.34 143.09 358.31 143.09 358.21 153.79 327.79 157.13"/><polygon class="cls-2" points="333.37 135.1 333.37 172.48 357.73 153.8 333.37 135.1"/><polygon class="cls-1" points="333.37 153.82 313.47 172.35 333.37 172.48 333.37 153.82"/><polygon class="cls-3" points="357.73 153.8 333.37 172.48 333.45 153.8 357.73 153.8"/><polygon class="cls-6" points="333.45 162.25 303.38 135.1 333.37 135.1 333.45 162.25"/><polygon class="cls-17" points="358.21 153.79 346.1 162.72 333.45 153.8 358.21 153.79"/><polygon class="cls-6" points="358.21 145.78 360.89 143.09 358.21 143.09 358.21 145.78"/><polygon class="cls-18" points="358.21 145.78 350.2 153.79 358.21 153.79 358.21 145.78"/><path class="cls-3" d="M55.56,63.07A18.34,18.34,0,1,0,73.88,44.75,18.32,18.32,0,0,0,55.56,63.07Z"/><circle class="cls-3" cx="107.57" cy="67.44" r="13.64"/><path class="cls-3" d="M76.81,45s4-8.39,15.33-8.43h.33a16.49,16.49,0,0,1,16,17.11v.17c-.21,3.4-2,27.18-2,27.18l-32.58.37Z"/><polygon class="cls-1" points="119.58 103.76 110.83 98.54 108.25 98.54 108.28 102.52 119.58 103.76"/><polygon class="cls-2" points="117.51 95.57 117.51 109.46 108.46 102.52 117.51 95.57"/><polygon class="cls-1" points="117.51 102.53 124.9 109.41 117.51 109.46 117.51 102.53"/><polygon class="cls-3" points="108.46 102.52 117.51 109.46 117.48 102.52 108.46 102.52"/><polygon class="cls-6" points="117.48 105.66 128.65 95.57 117.51 95.57 117.48 105.66"/><polygon class="cls-17" points="108.28 102.52 112.78 105.83 117.48 102.52 108.28 102.52"/><polygon class="cls-6" points="108.28 99.54 107.28 98.54 108.28 98.54 108.28 99.54"/><polygon class="cls-18" points="108.28 99.54 111.26 102.52 108.28 102.52 108.28 99.54"/></g></svg>